<?xml version="1.0" standalone="yes"?><svg xmlns="http://www.w3.org/2000/svg" xmlns:xlink="http://www.w3.org/1999/xlink"><symbol viewBox="0.0 0.0 960.0 720.0" fill="none" stroke-linecap="square" stroke-miterlimit="10" id="neurone"><clipPath id="aa"><path d="M0 0h960v720H0V0z"/></clipPath><g clip-path="url(#aa)"><path fill="none" d="M0 0h960v720H0z"/><path fill="#cfe2f3" d="M335.596 360c0-81.93 62.66-148.346 139.953-148.346 37.116 0 72.714 15.63 98.96 43.45 26.246 27.82 40.99 65.552 40.99 104.896 0 81.93-62.658 148.346-139.95 148.346-77.295 0-139.954-66.417-139.954-148.346z"/><path stroke="#000" stroke-linejoin="round" stroke-linecap="butt" d="M335.596 360c0-81.93 62.66-148.346 139.953-148.346 37.116 0 72.714 15.63 98.96 43.45 26.246 27.82 40.99 65.552 40.99 104.896 0 81.93-62.658 148.346-139.95 148.346-77.295 0-139.954-66.417-139.954-148.346z"/><path fill="none" d="M72.457 156.55h108.567v46.52H72.457z"/><path fill="#fff" d="M82.863 183.47v-13.593h2.72l3.217 9.625q.438 1.344.64 2.016.235-.75.735-2.187l3.25-9.453h2.422v13.594h-1.734v-11.39l-3.953 11.39h-1.625l-3.938-11.577v11.578h-1.734zm22.134-3.17l1.72.218q-.407 1.5-1.516 2.344-1.093.828-2.812.828-2.156 0-3.422-1.328-1.265-1.328-1.265-3.735 0-2.484 1.266-3.86 1.28-1.374 3.328-1.374 1.985 0 3.235 1.344 1.25 1.344 1.25 3.797 0 .14-.017.437H99.42q.093 1.626.92 2.486.83.86 2.064.86.906 0 1.547-.47.657-.484 1.047-1.547zm-5.484-2.704h5.5q-.11-1.234-.625-1.86-.797-.968-2.078-.968-1.14 0-1.938.78-.78.767-.86 2.048zm1.547-5.203l1.234-2.594h2.188l-2.047 2.593h-1.375zm11.22 9.578l.234 1.486q-.703.14-1.266.14-.906 0-1.406-.28-.5-.298-.703-.75-.204-.47-.204-1.985v-5.656H107.7v-1.312h1.236v-2.438l1.656-1v3.438h1.687v1.312h-1.688v5.75q0 .72.078.922.094.203.297.328.203.125.578.125.266 0 .734-.08zm8.277-1.67l1.718.218q-.406 1.5-1.515 2.344-1.094.828-2.813.828-2.156 0-3.422-1.328-1.265-1.328-1.265-3.735 0-2.484 1.265-3.86 1.282-1.374 3.328-1.374 1.985 0 3.235 1.344 1.25 1.344 1.25 3.797 0 .14-.016.437h-7.344q.094 1.626.922 2.486.828.86 2.063.86.906 0 1.547-.47.656-.484 1.047-1.547zm-5.485-2.704h5.5q-.11-1.234-.625-1.86-.797-.968-2.078-.968-1.142 0-1.938.78-.782.767-.86 2.048zm1.547-5.203l1.233-2.594h2.188l-2.046 2.593h-1.375zm6.937 6.156q0-2.735 1.53-4.063 1.267-1.094 3.095-1.094 2.03 0 3.313 1.344 1.297 1.328 1.297 3.672 0 1.905-.58 3-.56 1.077-1.655 1.686-1.078.594-2.375.594-2.062 0-3.344-1.328-1.28-1.328-1.28-3.813zm1.72 0q0 1.89.827 2.827.828.938 2.078.938t2.063-.938q.828-.953.828-2.89 0-1.828-.828-2.766-.828-.936-2.063-.936-1.25 0-2.078.937-.828.94-.828 2.83z"/><path fill="none" d="M72.457 456.814H191.45v72.85H72.456z"/><path fill="#fff" d="M81.425 483.734l5.235-13.594h1.937l5.563 13.594h-2.047l-1.594-4.125H84.83l-1.485 4.124h-1.922zm3.922-5.578h4.61l-1.407-3.782q-.656-1.703-.968-2.812-.266 1.312-.735 2.594l-1.5 4zm2.297-10.08l-1.047 1.58H84.69l2-2.594h1.782l2.094 2.594h-1.89l-1.032-1.58zm7.21 16.47l1.61.25q.108.75.577 1.094.61.453 1.688.453 1.172 0 1.797-.47.625-.452.86-1.28.125-.516.11-2.156-1.095 1.297-2.72 1.297-2.03 0-3.156-1.47-1.11-1.468-1.11-3.515 0-1.407.515-2.594.516-1.204 1.485-1.844.968-.656 2.265-.656 1.75 0 2.875 1.406v-1.188h1.547v8.516q0 2.312-.47 3.266-.467.968-1.483 1.515-1.016.564-2.5.564-1.766 0-2.86-.797-1.077-.797-1.03-2.39zm1.374-5.922q0 1.953.766 2.844.78.89 1.938.89 1.14 0 1.92-.89.783-.89.783-2.78 0-1.814-.813-2.72-.797-.922-1.922-.922-1.11 0-1.89.906-.782.89-.782 2.672zm16.048 1.938l1.72.22q-.408 1.5-1.517 2.342-1.095.828-2.813.828-2.157 0-3.422-1.328-1.266-1.328-1.266-3.734 0-2.484 1.265-3.86 1.28-1.374 3.328-1.374 1.984 0 3.234 1.343t1.25 3.796q0 .14-.015.438h-7.344q.094 1.625.922 2.484.828.86 2.062.86.906 0 1.547-.47.655-.484 1.046-1.546zm-5.484-2.703h5.5q-.11-1.236-.625-1.86-.797-.97-2.08-.97-1.14 0-1.936.782-.78.765-.858 2.047zm20.684 5.874v-1.25q-.938 1.468-2.75 1.468-1.172 0-2.172-.64-.985-.656-1.53-1.813-.533-1.173-.533-2.688 0-1.47.486-2.672.5-1.203 1.468-1.844.985-.64 2.204-.64.89 0 1.578.375.703.376 1.14.985v-4.875h1.657v13.594h-1.547zm-5.282-4.922q0 1.89.797 2.828.814.937 1.892.937 1.094 0 1.86-.89.765-.89.765-2.735 0-2.015-.78-2.953-.783-.954-1.923-.954-1.11 0-1.86.906-.75.907-.75 2.86zm15.72 4.922v-1.453q-1.14 1.672-3.125 1.672-.86 0-1.626-.328-.75-.343-1.125-.843-.36-.5-.517-1.234-.094-.5-.094-1.562v-6.11h1.67v5.47q0 1.312.095 1.765.156.655.672 1.03t1.266.375q.75 0 1.406-.375.655-.39.92-1.047.282-.672.282-1.937v-5.282h1.672v9.86h-1.5zm12.762-1.5l.234 1.484q-.703.14-1.265.14-.907 0-1.407-.28-.5-.297-.703-.75-.203-.47-.203-1.985v-5.656h-1.234v-1.313h1.234v-2.437l1.656-1v3.437h1.688v1.313h-1.688v5.75q0 .72.08.922.092.202.295.327.204.125.58.125.264 0 .733-.078zm1.51 1.5v-9.86h1.5v1.5q.58-1.047 1.064-1.375.484-.344 1.078-.344.844 0 1.72.546l-.58 1.547q-.61-.36-1.234-.36-.547 0-.984.328-.422.328-.61.906-.28.89-.28 1.953v5.157h-1.673zm12.667-1.22q-.937.798-1.797 1.126-.86.312-1.843.312-1.61 0-2.485-.78-.875-.798-.875-2.032 0-.734.328-1.328.33-.594.86-.953.532-.36 1.204-.548.5-.14 1.484-.25 2.03-.25 2.985-.578v-.438q0-1.015-.47-1.437-.64-.564-1.905-.564-1.172 0-1.735.406-.562.407-.828 1.47l-1.64-.235q.234-1.047.734-1.688.514-.64 1.468-.985.968-.36 2.25-.36 1.265 0 2.046.297.782.297 1.157.75.376.454.516 1.14.094.423.094 1.532v2.235q0 2.327.094 2.952.11.61.437 1.172h-1.75q-.264-.516-.327-1.22zm-.14-3.718q-.907.36-2.735.625-1.03.142-1.453.33-.422.187-.656.546-.236.36-.236.797 0 .672.5 1.125.516.438 1.485.438.968 0 1.718-.422.75-.438 1.11-1.157.265-.578.265-1.67v-.61zm4.094-6.75v-1.906h1.672v1.906h-1.673zm0 11.688v-9.86h1.672v9.86h-1.673zm4.13 0v-9.86h1.5v1.407q1.093-1.624 3.14-1.624.89 0 1.64.328.75.312 1.11.843.375.516.53 1.22.095.468.095 1.624v6.064h-1.672v-6q0-1.016-.203-1.516-.188-.516-.688-.812-.5-.297-1.172-.297-1.063 0-1.844.67-.766.672-.766 2.58v5.374h-1.672z"/><path fill="none" d="M783.304 334.83H909.92v53.007H783.303z"/><path fill="#fff" d="M804.07 360.296q1.266.86 2.313 1.266l-.532 1.25q-1.452-.53-2.92-1.672-1.5.844-3.33.844-1.842 0-3.358-.89-1.5-.89-2.313-2.5-.813-1.626-.813-3.64 0-2.017.812-3.658.828-1.656 2.328-2.515 1.515-.874 3.375-.874 1.89 0 3.39.906 1.516.89 2.313 2.5.797 1.61.797 3.625 0 1.687-.516 3.03-.516 1.33-1.547 2.33zM800.117 358q1.562.42 2.562 1.296 1.593-1.453 1.593-4.36 0-1.655-.562-2.874-.562-1.234-1.64-1.922-1.078-.687-2.422-.687-2.015 0-3.344 1.39-1.328 1.375-1.328 4.11 0 2.656 1.313 4.078 1.31 1.407 3.358 1.407.953 0 1.813-.36-.843-.546-1.78-.78l.437-1.298zm14.402 3.75v-1.454q-1.142 1.672-3.126 1.672-.86 0-1.625-.328-.75-.344-1.126-.844-.36-.5-.516-1.234-.093-.5-.093-1.563v-6.11h1.672v5.47q0 1.31.093 1.764.157.657.672 1.032.516.375 1.266.375t1.406-.374q.656-.39.922-1.047.28-.673.28-1.94v-5.28h1.673v9.86h-1.5zm10.36-1.22q-.938.798-1.798 1.126-.86.312-1.844.312-1.61 0-2.484-.78-.875-.798-.875-2.032 0-.735.327-1.328.328-.594.86-.954.53-.36 1.203-.546.5-.14 1.484-.25 2.03-.25 2.984-.58v-.436q0-1.016-.468-1.438-.64-.562-1.907-.562-1.17 0-1.734.406-.563.406-.83 1.47l-1.64-.235q.235-1.047.735-1.688.515-.64 1.468-.984.97-.36 2.25-.36 1.266 0 2.047.298.782.297 1.157.75t.515 1.14q.094.423.094 1.532v2.234q0 2.33.094 2.954.11.61.437 1.17h-1.75q-.265-.514-.328-1.217zm-.142-3.718q-.906.36-2.734.625-1.03.14-1.453.328-.42.188-.655.547-.235.36-.235.797 0 .67.5 1.124.516.437 1.485.437.968 0 1.718-.42.75-.438 1.11-1.157.265-.578.265-1.672v-.608zm4.08 4.937v-9.86h1.5v1.406q1.093-1.625 3.14-1.625.89 0 1.64.33.75.312 1.11.843.375.516.53 1.22.095.468.095 1.624v6.062h-1.672v-6q0-1.016-.202-1.516-.188-.516-.688-.813-.5-.296-1.17-.296-1.064 0-1.845.672-.766.672-.766 2.578v5.375h-1.673zm16.766 0v-1.25q-.938 1.468-2.75 1.468-1.172 0-2.172-.64-.985-.657-1.53-1.813-.533-1.172-.533-2.687 0-1.47.484-2.672.5-1.203 1.468-1.844.985-.64 2.204-.64.89 0 1.578.374.703.375 1.14.985v-4.874h1.657v13.593h-1.546zm-5.282-4.922q0 1.89.797 2.828.812.937 1.89.937 1.094 0 1.86-.89.765-.89.765-2.735 0-2.015-.78-2.953-.783-.953-1.923-.953-1.11 0-1.86.906t-.75 2.86zm14.42 4.92v-13.592h1.67v13.593h-1.67zm10.925-3.17l1.72.218q-.408 1.5-1.517 2.344-1.094.828-2.812.828-2.157 0-3.422-1.328-1.266-1.328-1.266-3.734 0-2.485 1.266-3.86 1.28-1.375 3.328-1.375 1.984 0 3.234 1.345 1.25 1.344 1.25 3.797 0 .14-.015.437h-7.344q.093 1.624.92 2.484.83.86 2.063.86.906 0 1.547-.47.656-.484 1.047-1.546zm-5.484-2.704h5.5q-.11-1.234-.625-1.86-.797-.968-2.08-.968-1.14 0-1.936.782-.78.765-.86 2.046zM793.54 383.75v-9.86h1.5v1.5q.577-1.047 1.06-1.375.486-.344 1.08-.344.843 0 1.718.548l-.578 1.547q-.61-.36-1.234-.36-.547 0-.985.33-.42.327-.608.905-.28.89-.28 1.953v5.156h-1.673zm12.977-3.172l1.72.218q-.407 1.5-1.517 2.344-1.093.828-2.812.828-2.156 0-3.422-1.328t-1.266-3.734q0-2.485 1.266-3.86 1.28-1.375 3.328-1.375 1.984 0 3.234 1.345 1.25 1.344 1.25 3.797 0 .14-.015.437h-7.344q.093 1.624.92 2.484.83.86 2.063.86.907 0 1.547-.47.657-.484 1.047-1.546zm-5.484-2.704h5.5q-.11-1.234-.625-1.86-.797-.968-2.078-.968-1.14 0-1.938.782-.78.765-.86 2.046zm1.547-5.203l1.234-2.592h2.188l-2.047 2.593h-1.375zm7.563 14.86v-13.64h1.53v1.28q.532-.75 1.204-1.124.688-.375 1.64-.375 1.266 0 2.235.658.97.64 1.453 1.828.5 1.187.5 2.593 0 1.515-.547 2.734-.546 1.203-1.578 1.844-1.03.64-2.172.64-.843 0-1.515-.344-.656-.36-1.078-.89v4.797h-1.672zm1.515-8.656q0 1.907.766 2.813.78.906 1.875.906 1.108 0 1.89-.937.797-.938.797-2.922 0-1.875-.782-2.813-.765-.936-1.843-.936-1.063 0-1.89 1-.814 1-.814 2.89zm15.298 3.657q-.937.798-1.797 1.126-.86.312-1.845.312-1.61 0-2.484-.78-.874-.798-.874-2.032 0-.735.328-1.328.328-.594.86-.954.53-.36 1.203-.546.5-.14 1.484-.25 2.032-.25 2.985-.58v-.436q0-1.016-.468-1.438-.64-.562-1.907-.562-1.17 0-1.734.406-.562.406-.828 1.47l-1.64-.235q.234-1.047.734-1.688.515-.64 1.468-.984.97-.36 2.25-.36 1.266 0 2.047.298.782.297 1.157.75t.515 1.14q.093.423.093 1.532v2.234q0 2.33.094 2.954.11.61.437 1.17h-1.75q-.265-.514-.328-1.217zm-.14-3.718q-.907.36-2.735.625-1.03.14-1.452.328-.422.188-.656.547-.235.36-.235.797 0 .67.5 1.124.516.437 1.485.437.968 0 1.718-.42.75-.438 1.11-1.157.265-.578.265-1.672v-.608zm4.063 4.937v-9.86h1.5v1.5q.577-1.047 1.06-1.375.486-.344 1.08-.344.843 0 1.718.548l-.578 1.547q-.61-.36-1.234-.36-.547 0-.985.33-.42.327-.608.905-.28.89-.28 1.953v5.156h-1.673zm12.977-3.172l1.72.218q-.408 1.5-1.517 2.344-1.094.828-2.812.828-2.157 0-3.422-1.328-1.266-1.328-1.266-3.734 0-2.485 1.266-3.86 1.28-1.375 3.328-1.375 1.984 0 3.234 1.345 1.25 1.344 1.25 3.797 0 .14-.015.437h-7.344q.093 1.624.92 2.484.83.86 2.063.86.906 0 1.547-.47.656-.484 1.047-1.546zm-5.484-2.704h5.5q-.11-1.234-.625-1.86-.797-.968-2.08-.968-1.14 0-1.936.782-.78.765-.86 2.046zm9.094 5.875v-9.86h1.5v1.5q.578-1.047 1.063-1.375.484-.344 1.078-.344.843 0 1.718.548l-.578 1.547q-.61-.36-1.234-.36-.547 0-.984.33-.422.327-.61.905-.28.89-.28 1.953v5.156h-1.673z"/><path fill="#cfe2f3" d="M649.058 342.457h66.362v-17.544L750.507 360l-35.087 35.087v-17.544h-66.362z"/><path stroke="#000" stroke-linejoin="round" stroke-linecap="butt" d="M649.058 342.457h66.362v-17.544L750.507 360l-35.087 35.087v-17.544h-66.362z"/><path fill="none" d="M207.58 131.953h101.45v37.386H207.58z"/><path fill="#fff" d="M227.752 154.107l1.797.453q-.564 2.22-2.032 3.39-1.47 1.157-3.594 1.157-2.203 0-3.578-.89-1.375-.907-2.094-2.594-.72-1.703-.72-3.656 0-2.125.798-3.704.813-1.578 2.313-2.39 1.5-.828 3.296-.828 2.046 0 3.437 1.047 1.39 1.03 1.937 2.906l-1.765.422q-.47-1.485-1.376-2.157-.906-.687-2.266-.687-1.562 0-2.625.75-1.047.75-1.484 2.03-.423 1.267-.423 2.61 0 1.735.5 3.032.516 1.28 1.578 1.922 1.078.64 2.313.64 1.515 0 2.562-.86 1.047-.874 1.422-2.593zm2.926-.156q0-2.733 1.53-4.062 1.267-1.093 3.095-1.093 2.03 0 3.312 1.343 1.297 1.33 1.297 3.672 0 1.907-.578 3-.562 1.078-1.656 1.688-1.078.594-2.375.594-2.063 0-3.344-1.33-1.282-1.327-1.282-3.81zm1.72 0q0 1.892.827 2.83.828.937 2.078.937t2.062-.938q.83-.954.83-2.892 0-1.828-.83-2.765-.828-.938-2.062-.938-1.25 0-2.078.938-.828.937-.828 2.828zm16.03 1.75l1.72.22q-.407 1.5-1.516 2.343-1.094.83-2.813.83-2.157 0-3.423-1.33-1.265-1.328-1.265-3.734 0-2.485 1.265-3.86 1.282-1.375 3.33-1.375 1.983 0 3.233 1.343 1.25 1.344 1.25 3.797 0 .14-.016.438h-7.343q.094 1.625.922 2.484.83.86 2.063.86.906 0 1.547-.47.656-.484 1.047-1.546zM242.945 153h5.5q-.11-1.235-.625-1.86-.798-.968-2.08-.968-1.14 0-1.936.78-.782.767-.86 2.048zm9.517 5.875v-8.547h-1.484v-1.313h1.485v-1.046q0-.985.173-1.47.234-.655.843-1.046.61-.405 1.703-.405.703 0 1.562.156l-.25 1.47q-.516-.094-.984-.094-.766 0-1.08.328-.31.313-.31 1.203v.906h1.92v1.313h-1.92v8.547h-1.657zm5.184 0v-8.547h-1.484v-1.313h1.484v-1.046q0-.985.172-1.47.234-.655.844-1.046.61-.405 1.703-.405.703 0 1.562.156l-.25 1.47q-.515-.094-.984-.094-.765 0-1.077.328-.313.313-.313 1.203v.906h1.922v1.313H259.3v8.547h-1.656zm5.246-7.953v-1.907h1.906v1.907h-1.906zm0 7.953v-1.906h1.906v1.906h-1.906zm13.023-3.344v-.5q0-.985.265-1.704.22-.547.672-1.094.328-.39 1.188-1.156.875-.766 1.125-1.22.265-.452.265-1 0-.968-.765-1.702-.75-.734-1.86-.734-1.062 0-1.78.672-.704.656-.938 2.078l-1.72-.203q.235-1.907 1.376-2.907 1.157-1.015 3.032-1.015 2 0 3.188 1.093 1.187 1.08 1.187 2.61 0 .89-.422 1.64-.406.75-1.625 1.83-.812.733-1.062 1.077-.25.343-.375.797-.125.437-.14 1.437h-1.61zm-.094 3.343v-1.906h1.89v1.906h-1.89z"/><path fill="none" d="M200.59 353.882h101.45v37.386H200.59z"/><path fill="#fff" d="M220.762 376.036l1.797.453q-.563 2.218-2.032 3.39-1.47 1.156-3.594 1.156-2.203 0-3.578-.89-1.375-.907-2.094-2.594-.718-1.703-.718-3.656 0-2.125.797-3.704.813-1.578 2.313-2.39 1.5-.828 3.297-.828 2.047 0 3.437 1.047 1.39 1.032 1.938 2.907l-1.766.422q-.47-1.486-1.376-2.158-.906-.687-2.265-.687-1.564 0-2.626.75-1.047.75-1.485 2.03-.423 1.267-.423 2.61 0 1.735.5 3.032.516 1.28 1.58 1.922 1.077.64 2.31.64 1.517 0 2.564-.86 1.047-.875 1.422-2.594zm2.926-.156q0-2.734 1.532-4.063 1.265-1.093 3.093-1.093 2.032 0 3.313 1.344 1.297 1.328 1.297 3.67 0 1.908-.578 3-.563 1.08-1.657 1.69-1.078.593-2.375.593-2.062 0-3.343-1.327-1.282-1.33-1.282-3.813zm1.72 0q0 1.89.827 2.828.828.938 2.078.938t2.063-.938q.828-.953.828-2.89 0-1.83-.828-2.766-.828-.938-2.063-.938-1.25 0-2.078.938-.828.937-.828 2.828zm16.03 1.75l1.72.22q-.406 1.5-1.516 2.342-1.093.83-2.812.83-2.156 0-3.422-1.33-1.266-1.328-1.266-3.734 0-2.484 1.266-3.86 1.28-1.374 3.328-1.374 1.984 0 3.234 1.344 1.25 1.343 1.25 3.796 0 .14-.015.438h-7.344q.095 1.625.923 2.484.828.86 2.062.86.907 0 1.547-.47.657-.483 1.047-1.546zm-5.483-2.703h5.5q-.11-1.235-.625-1.86-.797-.968-2.078-.968-1.14 0-1.938.78-.78.766-.86 2.047zm9.516 5.875v-8.547h-1.483v-1.313h1.484v-1.046q0-.985.173-1.47.234-.655.844-1.046.61-.406 1.703-.406.703 0 1.562.156l-.25 1.47q-.515-.095-.984-.095-.766 0-1.078.328-.313.313-.313 1.203v.906h1.922v1.313h-1.923v8.547h-1.656zm5.184 0v-8.547h-1.484v-1.313h1.484v-1.046q0-.985.172-1.47.235-.655.844-1.046.61-.406 1.703-.406.703 0 1.563.156l-.25 1.47q-.516-.095-.985-.095-.764 0-1.077.328-.312.313-.312 1.203v.906h1.923v1.313h-1.922v8.547h-1.656zm5.246-7.953v-1.908h1.907v1.907H255.9zm0 7.952v-1.906h1.907v1.906H255.9zm13.023-3.344v-.5q0-.984.266-1.703.218-.547.67-1.094.33-.39 1.188-1.155.875-.766 1.125-1.22.266-.452.266-1 0-.968-.767-1.702-.75-.734-1.86-.734-1.062 0-1.78.67-.704.657-.938 2.08l-1.72-.204q.236-1.907 1.376-2.907 1.158-1.016 3.033-1.016 2 0 3.187 1.094 1.188 1.078 1.188 2.61 0 .89-.422 1.64-.407.75-1.625 1.828-.812.734-1.062 1.078-.25.344-.375.797-.125.438-.14 1.438h-1.61zm-.094 3.344v-1.906h1.89v1.906h-1.89z"/><path fill="#cfe2f3" d="M228.13 176.71l69.132 38.693 11.283-20.157 17.75 62.88-62.884 17.75 11.285-20.158-69.133-38.694z"/><path stroke="#000" stroke-linejoin="round" stroke-linecap="butt" d="M228.13 176.71l69.132 38.693 11.283-20.157 17.75 62.88-62.884 17.75 11.285-20.158-69.133-38.694z"/><path fill="#cfe2f3" d="M205.547 469.167l69.177-38.637-11.268-20.166 62.87 17.803-17.8 62.86-11.267-20.166L228.08 509.5z"/><path stroke="#000" stroke-linejoin="round" stroke-linecap="butt" d="M205.547 469.167l69.177-38.637-11.268-20.166 62.87 17.803-17.8 62.86-11.267-20.166L228.08 509.5z"/></g></symbol><symbol viewBox="0.0 0.0 960.0 720.0" fill="none" stroke-linecap="square" stroke-miterlimit="10" id="resau-de-neurone"><clipPath id="ba"><path d="M0 0h960v720H0V0z"/></clipPath><g clip-path="url(#ba)"><path fill="none" d="M0 0h960v720H0z"/><path fill="#cfe2f3" d="M369.197 118.622c0-51.567 39.85-93.37 89.008-93.37 23.606 0 46.246 9.837 62.938 27.347s26.07 41.26 26.07 66.022c0 51.567-39.85 93.37-89.008 93.37-49.158 0-89.008-41.803-89.008-93.37z"/><path stroke="#000" stroke-linejoin="round" stroke-linecap="butt" d="M369.197 118.622c0-51.567 39.85-93.37 89.008-93.37 23.606 0 46.246 9.837 62.938 27.347s26.07 41.26 26.07 66.022c0 51.567-39.85 93.37-89.008 93.37-49.158 0-89.008-41.803-89.008-93.37z"/><path fill="none" d="M72.457 78.76h108.567v46.518H72.457z"/><path fill="#fff" d="M82.863 105.68V92.084h2.72l3.217 9.625q.438 1.344.64 2.015.235-.75.735-2.187l3.25-9.453h2.422v13.594h-1.734V94.287l-3.953 11.39h-1.625L84.597 94.1v11.58h-1.734zm22.134-3.173l1.72.218q-.407 1.5-1.516 2.344-1.093.827-2.812.827-2.156 0-3.422-1.328-1.265-1.33-1.265-3.735 0-2.485 1.266-3.86 1.28-1.375 3.328-1.375 1.985 0 3.235 1.344 1.25 1.344 1.25 3.797 0 .142-.017.44H99.42q.093 1.624.92 2.483.83.86 2.064.86.906 0 1.547-.47.657-.484 1.047-1.546zm-5.484-2.703h5.5q-.11-1.235-.625-1.86-.797-.97-2.078-.97-1.14 0-1.938.783-.78.765-.86 2.047zm1.547-5.204l1.234-2.593h2.188l-2.047 2.593h-1.375zm11.22 9.58l.234 1.483q-.703.14-1.266.14-.906 0-1.406-.28-.5-.298-.703-.75-.204-.47-.204-1.985v-5.656H107.7V95.82h1.236V93.38l1.656-1v3.437h1.687v1.312h-1.688v5.75q0 .718.078.922.094.203.297.328.203.125.578.125.266 0 .734-.078zm8.277-1.673l1.718.218q-.406 1.5-1.515 2.344-1.094.827-2.813.827-2.156 0-3.422-1.328-1.265-1.33-1.265-3.735 0-2.485 1.265-3.86 1.282-1.375 3.328-1.375 1.985 0 3.235 1.344 1.25 1.344 1.25 3.797 0 .142-.016.44h-7.344q.094 1.624.922 2.483.828.86 2.063.86.906 0 1.547-.47.656-.484 1.047-1.546zm-5.485-2.703h5.5q-.11-1.235-.625-1.86-.797-.97-2.078-.97-1.142 0-1.938.783-.782.765-.86 2.047zm1.547-5.204l1.233-2.593h2.188l-2.046 2.593h-1.375zm6.937 6.157q0-2.735 1.53-4.063 1.267-1.094 3.095-1.094 2.03 0 3.313 1.344 1.297 1.328 1.297 3.672 0 1.906-.58 3-.56 1.078-1.655 1.688-1.078.593-2.375.593-2.062 0-3.344-1.328-1.28-1.33-1.28-3.813zm1.72 0q0 1.89.827 2.828.828.937 2.078.937t2.063-.937q.828-.953.828-2.89 0-1.83-.828-2.766-.828-.94-2.063-.94-1.25 0-2.078.94-.828.936-.828 2.827z"/><path fill="none" d="M67.244 500.598h118.992v72.85H67.244z"/><path fill="#fff" d="M76.213 527.518l5.234-13.593h1.938l5.562 13.593H86.9l-1.593-4.125H79.62l-1.485 4.125h-1.922zm3.922-5.578h4.61l-1.407-3.78q-.656-1.704-.97-2.813-.265 1.312-.733 2.593l-1.5 4zm2.297-10.078l-1.047 1.578h-1.907l2-2.593h1.782l2.093 2.593h-1.89l-1.03-1.578zm7.21 16.47l1.608.25q.11.75.578 1.093.61.453 1.688.453 1.172 0 1.797-.47.625-.452.86-1.28.124-.516.108-2.156-1.092 1.296-2.717 1.296-2.032 0-3.157-1.468-1.11-1.47-1.11-3.516 0-1.406.517-2.594.515-1.203 1.484-1.843.97-.657 2.266-.657 1.75 0 2.875 1.407v-1.188h1.547v8.515q0 2.312-.47 3.265-.468.97-1.484 1.516-1.014.562-2.5.562-1.764 0-2.858-.796-1.078-.797-1.03-2.39zm1.374-5.923q0 1.952.765 2.843.783.89 1.94.89 1.14 0 1.92-.89.782-.89.782-2.78 0-1.814-.812-2.72-.797-.922-1.922-.922-1.11 0-1.89.907-.782.89-.782 2.672zm16.047 1.937l1.72.218q-.407 1.5-1.516 2.344-1.094.827-2.813.827-2.156 0-3.422-1.328-1.265-1.33-1.265-3.735 0-2.485 1.265-3.86 1.28-1.375 3.328-1.375 1.985 0 3.235 1.344 1.25 1.344 1.25 3.797 0 .142-.016.438h-7.345q.094 1.625.922 2.485.828.86 2.063.86.906 0 1.547-.47.656-.484 1.046-1.546zm-5.484-2.704h5.5q-.11-1.234-.626-1.86-.797-.968-2.078-.968-1.14 0-1.938.782-.78.765-.86 2.046zm20.683 5.875v-1.25q-.937 1.47-2.75 1.47-1.172 0-2.172-.64-.983-.658-1.53-1.814-.53-1.172-.53-2.687 0-1.47.483-2.672.5-1.203 1.47-1.844.983-.64 2.202-.64.89 0 1.578.375.703.375 1.14.985v-4.875h1.657v13.593h-1.547zm-5.28-4.92q0 1.89.796 2.827.81.937 1.89.937 1.093 0 1.86-.89.764-.89.764-2.735 0-2.015-.78-2.953-.782-.953-1.923-.953-1.108 0-1.858.907-.75.906-.75 2.86zm15.718 4.92v-1.453q-1.14 1.672-3.124 1.672-.86 0-1.625-.328-.75-.345-1.124-.845-.36-.5-.515-1.234-.093-.5-.093-1.562v-6.11h1.672v5.47q0 1.312.092 1.765.157.657.672 1.032.516.375 1.266.375t1.406-.375q.656-.39.922-1.047.28-.672.28-1.938v-5.28h1.673v9.858h-1.5zm12.763-1.5l.235 1.485q-.703.14-1.266.14-.906 0-1.406-.28-.5-.298-.703-.75-.203-.47-.203-1.985v-5.656h-1.235v-1.313h1.235v-2.438l1.656-1v3.437h1.687v1.312h-1.687v5.75q0 .718.078.92.094.205.297.33.204.125.58.125.265 0 .733-.08zm1.512 1.5v-9.86h1.5v1.5q.578-1.046 1.062-1.374.485-.344 1.078-.344.844 0 1.72.547l-.58 1.547q-.608-.36-1.233-.36-.547 0-.985.33-.422.327-.61.905-.28.89-.28 1.952v5.156h-1.672zm12.666-1.218q-.937.797-1.796 1.125-.86.312-1.844.312-1.61 0-2.484-.78-.875-.798-.875-2.032 0-.735.33-1.328.327-.594.858-.954.53-.36 1.203-.546.5-.14 1.486-.25 2.03-.25 2.984-.58v-.436q0-1.015-.47-1.437-.64-.562-1.905-.562-1.172 0-1.734.407-.562.406-.828 1.47l-1.64-.235q.234-1.047.734-1.688.516-.64 1.47-.984.968-.36 2.25-.36 1.265 0 2.046.297.78.297 1.156.75.375.453.516 1.14.093.423.093 1.532v2.233q0 2.33.094 2.954.11.61.44 1.17h-1.75q-.267-.514-.33-1.217zm-.14-3.72q-.906.36-2.734.626-1.032.14-1.454.328-.42.188-.656.547-.234.36-.234.798 0 .672.5 1.125.515.437 1.484.437.97 0 1.72-.422.75-.437 1.108-1.156.266-.578.266-1.672v-.61zm4.094-6.75v-1.905h1.672v1.906h-1.672zm0 11.688v-9.86h1.672v9.86h-1.672zm4.13 0v-9.86h1.5v1.407q1.093-1.625 3.14-1.625.89 0 1.64.328.75.313 1.11.844.375.516.532 1.22.093.468.093 1.624v6.062h-1.673v-6q0-1.015-.203-1.515-.187-.516-.687-.813-.5-.297-1.172-.297-1.063 0-1.844.672-.764.672-.764 2.578v5.375h-1.672z"/><path fill="none" d="M711.202 616.81h253.102v53.01H711.202z"/><path fill="#fff" d="M731.968 642.278q1.265.86 2.312 1.266l-.53 1.25q-1.454-.532-2.923-1.672-1.5.843-3.328.843-1.845 0-3.36-.89-1.5-.89-2.313-2.5-.812-1.625-.812-3.64 0-2.016.812-3.657.828-1.656 2.328-2.516 1.516-.875 3.375-.875 1.89 0 3.39.907 1.516.89 2.313 2.5.797 1.61.797 3.625 0 1.686-.515 3.03-.516 1.328-1.547 2.328zm-3.953-2.297q1.562.423 2.562 1.298 1.594-1.453 1.594-4.36 0-1.656-.562-2.874-.562-1.235-1.64-1.922-1.078-.688-2.422-.688-2.016 0-3.344 1.39-1.328 1.376-1.328 4.11 0 2.656 1.312 4.078 1.313 1.407 3.36 1.407.953 0 1.812-.36-.843-.548-1.78-.782l.437-1.297zm14.402 3.75v-1.452q-1.14 1.672-3.125 1.672-.86 0-1.625-.328-.75-.344-1.125-.844-.36-.5-.516-1.234-.094-.5-.094-1.563v-6.108h1.672v5.468q0 1.313.094 1.766.156.656.672 1.03.515.376 1.265.376.75 0 1.407-.375.656-.39.92-1.047.283-.67.283-1.937v-5.28h1.672v9.858h-1.5zm10.36-1.218q-.938.797-1.797 1.125-.86.313-1.844.313-1.61 0-2.484-.78-.875-.798-.875-2.033 0-.734.328-1.328.328-.595.86-.954.53-.36 1.202-.547.5-.14 1.485-.25 2.03-.25 2.984-.58v-.436q0-1.016-.47-1.438-.64-.562-1.905-.562-1.17 0-1.733.406-.563.406-.828 1.47l-1.642-.236q.234-1.047.734-1.687.516-.64 1.47-.985.968-.36 2.25-.36 1.265 0 2.046.298.78.297 1.156.75.375.453.516 1.14.094.422.094 1.532v2.234q0 2.328.093 2.953.11.61.438 1.17h-1.75q-.266-.515-.328-1.218zm-.14-3.718q-.907.36-2.735.625-1.032.14-1.453.327-.423.187-.658.547-.234.36-.234.796 0 .672.5 1.125.516.438 1.484.438.97 0 1.72-.422.75-.436 1.108-1.155.266-.578.266-1.672v-.61zm4.078 4.937v-9.858h1.5v1.406q1.094-1.625 3.14-1.625.89 0 1.64.328.75.314 1.11.845.376.515.532 1.22.094.467.094 1.624v6.06h-1.67v-6q0-1.015-.204-1.515-.188-.515-.688-.812-.5-.297-1.172-.297-1.062 0-1.844.672-.765.672-.765 2.578v5.375h-1.672zm16.766 0v-1.25q-.936 1.47-2.75 1.47-1.17 0-2.17-.64-.985-.657-1.532-1.813-.53-1.172-.53-2.688 0-1.47.483-2.673.5-1.203 1.47-1.843.984-.64 2.203-.64.89 0 1.578.374.704.375 1.142.984v-4.875h1.656v13.594h-1.547zm-5.28-4.92q0 1.89.797 2.827.812.938 1.89.938 1.094 0 1.86-.89t.766-2.735q0-2.016-.782-2.953-.78-.953-1.92-.953-1.11 0-1.86.906t-.75 2.86zm14.418 4.92v-13.593h1.672v13.594h-1.672zm10.926-3.17l1.72.218q-.407 1.5-1.516 2.344-1.094.828-2.813.828-2.156 0-3.422-1.328-1.265-1.328-1.265-3.735 0-2.484 1.265-3.86 1.28-1.374 3.328-1.374 1.986 0 3.236 1.344 1.25 1.343 1.25 3.797 0 .14-.016.437h-7.344q.094 1.626.922 2.485.828.86 2.063.86.907 0 1.548-.47.656-.483 1.046-1.546zm-5.484-2.704h5.5q-.11-1.234-.625-1.86-.797-.968-2.078-.968-1.14 0-1.938.78-.782.767-.86 2.048zm19.46 5.875v-9.858h1.5v1.5q.58-1.047 1.064-1.375.484-.344 1.078-.344.844 0 1.72.547l-.58 1.547q-.61-.36-1.234-.36-.547 0-.984.328-.422.33-.61.907-.28.89-.28 1.953v5.156h-1.673zm12.98-3.17l1.718.218q-.406 1.5-1.515 2.344-1.094.828-2.813.828-2.156 0-3.422-1.328-1.265-1.328-1.265-3.735 0-2.484 1.265-3.86 1.28-1.374 3.328-1.374 1.985 0 3.235 1.344 1.25 1.343 1.25 3.797 0 .14-.015.437h-7.344q.095 1.626.923 2.485.828.86 2.063.86.906 0 1.547-.47.656-.483 1.046-1.546zm-5.485-2.704h5.5q-.11-1.234-.625-1.86-.797-.968-2.078-.968-1.14 0-1.938.78-.78.767-.86 2.048zm1.547-5.203l1.234-2.594h2.188l-2.047 2.593h-1.375zm7.563 14.86v-13.64h1.53v1.28q.533-.75 1.205-1.125.687-.375 1.64-.375 1.266 0 2.235.656.968.64 1.453 1.827.5 1.188.5 2.594 0 1.517-.547 2.735-.546 1.204-1.577 1.844-1.032.64-2.172.64-.843 0-1.515-.344-.656-.36-1.078-.89v4.796h-1.672zm1.516-8.657q0 1.906.766 2.813.782.905 1.875.905 1.11 0 1.892-.938.797-.937.797-2.922 0-1.875-.782-2.812-.766-.938-1.844-.938-1.063 0-1.89 1-.813 1-.813 2.89zm15.298 3.656q-.937.797-1.796 1.125-.86.313-1.844.313-1.61 0-2.485-.78-.875-.798-.875-2.033 0-.734.33-1.328.327-.595.858-.954.53-.36 1.203-.547.5-.14 1.483-.25 2.032-.25 2.985-.58v-.436q0-1.016-.47-1.438-.64-.562-1.905-.562-1.172 0-1.735.406-.562.406-.828 1.47l-1.64-.236q.234-1.047.734-1.687.516-.64 1.47-.985.968-.36 2.25-.36 1.264 0 2.046.298.78.297 1.156.75.375.453.516 1.14.093.422.093 1.532v2.234q0 2.328.094 2.953.108.61.437 1.17h-1.75q-.266-.515-.33-1.218zm-.14-3.718q-.906.36-2.735.625-1.03.14-1.453.327-.422.187-.656.547-.234.36-.234.796 0 .672.5 1.125.515.438 1.484.438.97 0 1.72-.422.75-.436 1.108-1.155.266-.578.266-1.672v-.61zm4.063 4.937v-9.858h1.5v1.5q.58-1.047 1.064-1.375.484-.344 1.078-.344.843 0 1.718.547l-.578 1.547q-.61-.36-1.234-.36-.547 0-.984.328-.422.33-.61.907-.28.89-.28 1.953v5.156h-1.673zm12.98-3.17l1.718.218q-.406 1.5-1.516 2.344-1.093.828-2.812.828-2.156 0-3.422-1.328t-1.266-3.735q0-2.484 1.266-3.86 1.28-1.374 3.328-1.374 1.985 0 3.235 1.344 1.25 1.343 1.25 3.797 0 .14-.015.437h-7.344q.095 1.626.923 2.485.828.86 2.063.86.906 0 1.546-.47.657-.483 1.047-1.546zm-5.485-2.704h5.5q-.11-1.234-.625-1.86-.797-.968-2.078-.968-1.14 0-1.938.78-.78.767-.86 2.048zm1.547-5.203l1.234-2.594h2.188l-2.047 2.593h-1.375z"/><path fill="#cfe2f3" d="M369.197 332.223c0-51.567 39.85-93.37 89.008-93.37 23.606 0 46.246 9.837 62.938 27.347s26.07 41.26 26.07 66.023c0 51.567-39.85 93.37-89.008 93.37-49.158 0-89.008-41.803-89.008-93.37z"/><path stroke="#000" stroke-linejoin="round" stroke-linecap="butt" d="M369.197 332.223c0-51.567 39.85-93.37 89.008-93.37 23.606 0 46.246 9.837 62.938 27.347s26.07 41.26 26.07 66.023c0 51.567-39.85 93.37-89.008 93.37-49.158 0-89.008-41.803-89.008-93.37z"/><path fill="#cfe2f3" d="M369.197 537.024c0-51.567 39.85-93.37 89.008-93.37 23.606 0 46.246 9.837 62.938 27.347s26.07 41.26 26.07 66.024c0 51.566-39.85 93.37-89.008 93.37-49.158 0-89.008-41.804-89.008-93.37z"/><path stroke="#000" stroke-linejoin="round" stroke-linecap="butt" d="M369.197 537.024c0-51.567 39.85-93.37 89.008-93.37 23.606 0 46.246 9.837 62.938 27.347s26.07 41.26 26.07 66.024c0 51.566-39.85 93.37-89.008 93.37-49.158 0-89.008-41.804-89.008-93.37z"/><path fill="#cfe2f3" d="M711.202 338.622c0-51.567 39.85-93.37 89.008-93.37 23.606 0 46.246 9.837 62.938 27.347s26.07 41.26 26.07 66.022c0 51.567-39.85 93.37-89.008 93.37-49.158 0-89.008-41.803-89.008-93.37z"/><path stroke="#000" stroke-linejoin="round" stroke-linecap="butt" d="M711.202 338.622c0-51.567 39.85-93.37 89.008-93.37 23.606 0 46.246 9.837 62.938 27.347s26.07 41.26 26.07 66.022c0 51.567-39.85 93.37-89.008 93.37-49.158 0-89.008-41.803-89.008-93.37z"/><path fill="none" d="M548.012 119.214L737.272 272.6"/><path stroke="#000" stroke-linejoin="round" stroke-linecap="butt" d="M548.012 119.214l184.6 149.608"/><path fill="#000" stroke="#000" stroke-linecap="butt" d="M731.57 270.105l4.566 1.574-2.485-4.142z" fill-rule="evenodd"/><path fill="none" d="M547.213 332.223l164 6.394"/><path stroke="#000" stroke-linejoin="round" stroke-linecap="butt" d="M547.213 332.223l158.004 6.16"/><path fill="#000" stroke="#000" stroke-linecap="butt" d="M705.153 340.034l4.6-1.474-4.472-1.827z" fill-rule="evenodd"/><path fill="none" d="M547.213 537.024L737.26 404.646"/><path stroke="#000" stroke-linejoin="round" stroke-linecap="butt" d="M547.213 537.024l185.124-128.95"/><path fill="#000" stroke="#000" stroke-linecap="butt" d="M733.28 409.43l2.78-3.95-4.668 1.24z" fill-rule="evenodd"/><path fill="none" d="M67.244 293.42H175.81v77.606H67.245z"/><path fill="#fff" d="M77.744 320.34v-13.594h9.844v1.594H79.54v4.172h7.532v1.594h-7.53v4.625H87.9v1.61H77.744zm3.563-14.078l1.234-2.594h2.188l-2.046 2.594h-1.375zm12.287 12.578l.234 1.484q-.703.14-1.265.14-.907 0-1.407-.28-.5-.297-.703-.75-.203-.47-.203-1.985v-5.657h-1.234v-1.312h1.234v-2.437l1.656-1v3.438h1.688v1.313h-1.688v5.75q0 .72.08.922.092.203.295.328.205.125.58.125.265 0 .734-.078zm7.964.28q-.937.798-1.796 1.126-.86.313-1.844.313-1.61 0-2.485-.783-.875-.796-.875-2.03 0-.735.33-1.33.327-.593.858-.952.53-.36 1.203-.547.5-.14 1.483-.25 2.032-.25 2.985-.578v-.438q0-1.015-.47-1.437-.64-.563-1.905-.563-1.172 0-1.735.407-.562.405-.828 1.467l-1.64-.234q.234-1.047.734-1.687.516-.64 1.47-.985.968-.358 2.25-.358 1.264 0 2.046.297.78.296 1.156.75.375.452.516 1.14.093.42.093 1.53v2.235q0 2.328.094 2.953.108.61.437 1.172h-1.75q-.266-.516-.33-1.22zm-.14-3.718q-.906.36-2.735.625-1.03.14-1.453.33-.422.186-.656.545-.234.36-.234.797 0 .67.5 1.124.515.438 1.484.438.97 0 1.72-.422.75-.438 1.108-1.156.266-.578.266-1.672v-.61zm7.735 3.438l.234 1.484q-.703.14-1.265.14-.907 0-1.407-.28-.5-.297-.703-.75-.203-.47-.203-1.985v-5.657h-1.235v-1.312h1.234v-2.437l1.655-1v3.438h1.688v1.313h-1.688v5.75q0 .72.08.922.092.203.295.328.204.125.58.125.264 0 .733-.078zm6.68 1.5v-13.594h1.67v13.594h-1.67zm3.55-4.922q0-2.734 1.53-4.062 1.267-1.094 3.095-1.094 2.03 0 3.313 1.344 1.297 1.328 1.297 3.67 0 1.908-.578 3-.563 1.08-1.657 1.69-1.078.593-2.375.593-2.062 0-3.344-1.33-1.28-1.328-1.28-3.812zm1.72 0q0 1.89.827 2.828.828.938 2.078.938t2.063-.938q.83-.953.83-2.89 0-1.83-.83-2.766-.828-.938-2.062-.938-1.25 0-2.078.938-.828.937-.828 2.828zm9.265 4.922v-9.86h1.5v1.5q.578-1.046 1.063-1.374.485-.344 1.08-.344.843 0 1.718.547l-.58 1.546q-.608-.36-1.233-.36-.547 0-.984.328-.42.328-.61.907-.28.89-.28 1.954v5.156h-1.672zm5.557-2.938l1.656-.265q.142 1 .767 1.53.64.517 1.78.517 1.157 0 1.704-.47.563-.468.563-1.093 0-.56-.484-.89-.345-.218-1.704-.562-1.844-.47-2.563-.797-.703-.343-1.078-.936-.36-.61-.36-1.328 0-.657.298-1.22.312-.562.828-.937.392-.282 1.063-.485.672-.203 1.438-.203 1.173 0 2.048.344.875.328 1.28.906.423.562.58 1.515l-1.626.22q-.11-.75-.656-1.173-.53-.437-1.5-.437-1.156 0-1.64.39-.485.375-.485.875 0 .33.204.594.203.266.64.438.25.093 1.47.437 1.765.47 2.468.767.703.297 1.094.875.406.578.406 1.437 0 .827-.484 1.577-.485.735-1.406 1.14-.922.392-2.08.392-1.92 0-2.936-.798-1-.797-1.28-2.36zM83.885 342.34v-1.25q-.938 1.47-2.75 1.47-1.172 0-2.172-.642-.985-.656-1.53-1.812-.533-1.172-.533-2.688 0-1.47.485-2.672.5-1.203 1.468-1.844.985-.64 2.204-.64.89 0 1.578.375.703.375 1.14.984v-4.874h1.657v13.594h-1.547zm-5.282-4.922q0 1.89.797 2.828.813.938 1.89.938 1.095 0 1.86-.89.766-.892.766-2.735 0-2.017-.78-2.954-.783-.954-1.923-.954-1.11 0-1.86.907-.75.905-.75 2.858zm15.72 4.922v-1.453q-1.14 1.672-3.125 1.672-.86 0-1.625-.33-.75-.343-1.125-.843-.36-.5-.516-1.235-.093-.5-.093-1.562v-6.11h1.67v5.47q0 1.312.094 1.765.156.656.672 1.03.516.376 1.266.376t1.406-.374q.656-.39.922-1.047.28-.673.28-1.938v-5.28h1.673v9.858h-1.5zm15.496 0v-1.25q-.938 1.47-2.75 1.47-1.172 0-2.172-.642-.985-.656-1.532-1.812-.53-1.172-.53-2.688 0-1.47.483-2.672.5-1.203 1.468-1.844.985-.64 2.203-.64.892 0 1.58.375.703.375 1.14.984v-4.874h1.656v13.594h-1.547zm-5.282-4.922q0 1.89.797 2.828.813.938 1.89.938 1.094 0 1.86-.89.766-.892.766-2.735 0-2.017-.78-2.954-.782-.954-1.922-.954-1.11 0-1.86.907-.75.905-.75 2.858zm16.017 1.75l1.718.22q-.406 1.5-1.515 2.343-1.094.83-2.813.83-2.156 0-3.422-1.33-1.265-1.328-1.265-3.734 0-2.484 1.265-3.86 1.282-1.374 3.328-1.374 1.986 0 3.236 1.344 1.25 1.343 1.25 3.796 0 .14-.016.438h-7.344q.094 1.625.922 2.484.828.86 2.063.86.907 0 1.548-.47.656-.483 1.047-1.546zm-5.485-2.703h5.5q-.11-1.234-.625-1.86-.797-.968-2.078-.968-1.14 0-1.937.78-.782.767-.86 2.048zm9.095 5.875v-9.86h1.5v1.5q.578-1.046 1.062-1.374.485-.344 1.078-.344.844 0 1.72.547l-.58 1.546q-.608-.36-1.233-.36-.547 0-.985.328-.422.328-.61.907-.28.89-.28 1.954v5.156h-1.672zm6.228 0v-9.86h1.5v1.407q1.094-1.625 3.14-1.625.89 0 1.64.328.75.312 1.11.844.376.515.532 1.218.094.47.094 1.625v6.063h-1.673v-6q0-1.016-.203-1.516-.188-.515-.688-.812-.5-.297-1.172-.297-1.062 0-1.844.672-.765.672-.765 2.578v5.375h-1.672zm10.39-11.688v-1.906h1.673v1.906h-1.672zm0 11.688v-9.86h1.673v9.86h-1.672zm10.88-3.172l1.72.22q-.407 1.5-1.516 2.343-1.094.83-2.813.83-2.156 0-3.422-1.33-1.265-1.328-1.265-3.734 0-2.484 1.265-3.86 1.28-1.374 3.328-1.374 1.985 0 3.235 1.344 1.25 1.343 1.25 3.796 0 .14-.016.438h-7.345q.094 1.625.922 2.484.828.86 2.063.86.906 0 1.547-.47.656-.483 1.046-1.546zm-5.484-2.703h5.5q-.11-1.234-.626-1.86-.797-.968-2.078-.968-1.14 0-1.938.78-.78.767-.86 2.048zm9.094 5.875v-9.86h1.5v1.5q.578-1.046 1.062-1.374.484-.344 1.078-.344.844 0 1.72.547l-.58 1.546q-.61-.36-1.234-.36-.546 0-.984.328-.422.328-.61.907-.28.89-.28 1.954v5.156h-1.672zM83.932 360.73l1.64.22q-.265 1.687-1.375 2.656-1.11.953-2.734.953-2.016 0-3.25-1.314-1.22-1.328-1.22-3.797 0-1.594.517-2.782.53-1.203 1.61-1.797 1.093-.608 2.358-.608 1.61 0 2.625.812 1.016.813 1.313 2.313l-1.625.25q-.233-1-.827-1.5t-1.422-.5q-1.265 0-2.062.906-.78.906-.78 2.86 0 1.984.765 2.89.765.89 1.984.89.985 0 1.64-.593.657-.61.845-1.86zm2.265-1.312q0-2.734 1.53-4.062 1.267-1.094 3.095-1.094 2.03 0 3.313 1.344 1.297 1.328 1.297 3.67 0 1.908-.58 3-.56 1.08-1.655 1.69-1.078.593-2.375.593-2.062 0-3.344-1.33-1.28-1.328-1.28-3.812zm1.72 0q0 1.89.827 2.828.828.938 2.078.938t2.063-.938q.828-.953.828-2.89 0-1.83-.828-2.766-.828-.938-2.063-.938-1.25 0-2.078.938-.828.937-.828 2.828zm9.28 4.922v-9.86h1.5v1.407q1.095-1.625 3.142-1.625.89 0 1.64.328.75.312 1.11.844.374.515.53 1.218.094.47.094 1.625v6.063h-1.672v-6q0-1.016-.203-1.516-.19-.515-.69-.812-.5-.297-1.17-.297-1.063 0-1.845.672-.765.672-.765 2.578v5.375h-1.672zm14.033-1.5l.234 1.484q-.703.14-1.265.14-.908 0-1.408-.28-.5-.297-.703-.75-.204-.47-.204-1.985v-5.657h-1.234v-1.312h1.234v-2.437l1.656-1v3.438h1.688v1.313h-1.688v5.75q0 .72.08.922.092.203.295.328.204.125.58.125.264 0 .733-.078zm1.51 1.5v-9.86h1.5v1.5q.58-1.046 1.064-1.374.484-.344 1.078-.344.844 0 1.72.547l-.58 1.546q-.61-.36-1.234-.36-.547 0-.984.328-.422.328-.61.907-.28.89-.28 1.954v5.156h-1.673zm5.605-4.922q0-2.734 1.53-4.062 1.267-1.094 3.095-1.094 2.03 0 3.312 1.344 1.297 1.328 1.297 3.67 0 1.908-.58 3-.562 1.08-1.655 1.69-1.078.593-2.375.593-2.063 0-3.344-1.33-1.28-1.328-1.28-3.812zm1.718 0q0 1.89.83 2.828.827.938 2.077.938t2.062-.938q.828-.953.828-2.89 0-1.83-.828-2.766-.828-.938-2.062-.938-1.25 0-2.078.938-.83.937-.83 2.828zm2.844-7.734l-1.047 1.578h-1.906l2-2.594h1.78l2.095 2.594h-1.892l-1.03-1.578zm6.407 12.656v-13.594h1.672v13.594h-1.672zm10.926-3.172l1.72.22q-.407 1.5-1.517 2.343-1.093.83-2.812.83-2.155 0-3.42-1.33-1.267-1.328-1.267-3.734 0-2.484 1.266-3.86 1.28-1.374 3.327-1.374 1.984 0 3.234 1.344 1.25 1.343 1.25 3.796 0 .14-.014.438h-7.344q.094 1.625.922 2.484.828.86 2.062.86.907 0 1.547-.47.657-.483 1.047-1.546zm-5.484-2.703h5.5q-.11-1.234-.625-1.86-.796-.968-2.077-.968-1.14 0-1.938.78-.78.767-.86 2.048z"/><path fill="none" d="M181.024 102.018l188.19 16.6"/><path stroke="red" stroke-linejoin="round" stroke-linecap="butt" d="M181.024 102.018l182.212 16.072"/><path fill="red" stroke="red" stroke-linecap="butt" d="M363.09 119.735l4.666-1.247-4.375-2.044z" fill-rule="evenodd"/><path fill="none" d="M181.024 102.018l188.19 230.205"/><path stroke="red" stroke-linejoin="round" stroke-linecap="butt" d="M181.024 102.018l184.39 225.56"/><path fill="red" stroke="red" stroke-linecap="butt" d="M364.136 328.623l4.15 2.468-1.592-4.558z" fill-rule="evenodd"/><path fill="none" d="M181.024 102.018l188.19 434.992"/><path stroke="red" stroke-linejoin="round" stroke-linecap="butt" d="M181.024 102.018L366.83 531.504"/><path fill="red" stroke="red" stroke-linecap="butt" d="M365.314 532.16l3.318 3.51-.286-4.822z" fill-rule="evenodd"/><path fill="none" d="M800.21 431.992l2.992 184.82"/><path stroke="#000" stroke-width="4" stroke-linejoin="round" stroke-linecap="butt" d="M800.21 431.992l2.604 160.822"/><path fill="#000" stroke="#000" stroke-width="4" stroke-linecap="butt" d="M796.207 592.92l6.9 18.044 6.313-18.257z" fill-rule="evenodd"/><path fill="none" d="M175.81 332.223l193.387-213.606"/><path stroke="#0f0" stroke-linejoin="round" stroke-linecap="butt" d="M175.81 332.223l189.36-209.158"/><path fill="#0f0" stroke="#0f0" stroke-linecap="butt" d="M366.394 124.173l1.822-4.472-4.27 2.256z" fill-rule="evenodd"/><path fill="none" d="M175.81 332.223h193.387"/><path stroke="#0f0" stroke-linejoin="round" stroke-linecap="butt" d="M175.81 332.223h187.387"/><path fill="#0f0" stroke="#0f0" stroke-linecap="butt" d="M363.197 333.875l4.538-1.652-4.538-1.652z" fill-rule="evenodd"/><path fill="none" d="M175.81 332.223L369.198 537.01"/><path stroke="#0f0" stroke-linejoin="round" stroke-linecap="butt" d="M175.81 332.223l189.267 200.425"/><path fill="#0f0" stroke="#0f0" stroke-linecap="butt" d="M363.877 533.782l4.316 2.166-1.915-4.434z" fill-rule="evenodd"/><path fill="none" d="M186.236 537.024l182.96-204.788"/><path stroke="#0ff" stroke-linejoin="round" stroke-linecap="butt" d="M186.236 537.024L365.2 336.71"/><path fill="#0ff" stroke="#0ff" stroke-linecap="butt" d="M366.43 337.81l1.793-4.484-4.255 2.284z" fill-rule="evenodd"/><path fill="none" d="M186.236 537.024h182.96"/><path stroke="#0ff" stroke-linejoin="round" stroke-linecap="butt" d="M186.236 537.024h176.96"/><path fill="#0ff" stroke="#0ff" stroke-linecap="butt" d="M363.197 538.675l4.538-1.65-4.538-1.653z" fill-rule="evenodd"/><path fill="none" d="M186.236 537.024l182.96-418.394"/><path stroke="#0ff" stroke-linejoin="round" stroke-linecap="butt" d="M186.236 537.024l180.557-412.897"/><path fill="#0ff" stroke="#0ff" stroke-linecap="butt" d="M368.306 124.79l.305-4.82-3.33 3.495z" fill-rule="evenodd"/></g></symbol></svg>